<?xml version="1.0" encoding="UTF-8"?>
<svg width="24" height="24" viewBox="0 0 24 24" fill="none" xmlns="http://www.w3.org/2000/svg">
<path d="M12 2.163C15.204 2.163 15.584 2.175 16.85 2.234C18.021 2.29 18.655 2.491 19.108 2.67C19.639 2.876 20.057 3.134 20.495 3.506C20.866 3.944 21.125 4.361 21.331 4.892C21.509 5.345 21.711 5.979 21.766 7.15C21.825 8.416 21.838 8.796 21.838 12C21.838 15.204 21.826 15.584 21.767 16.85C21.711 18.021 21.51 18.655 21.331 19.108C21.125 19.639 20.867 20.057 20.495 20.495C20.057 20.867 19.64 21.125 19.108 21.331C18.655 21.509 18.021 21.711 16.85 21.766C15.585 21.825 15.205 21.838 12 21.838C8.796 21.838 8.416 21.826 7.15 21.767C5.979 21.711 5.345 21.51 4.892 21.331C4.361 21.125 3.943 20.867 3.505 20.495C3.133 20.057 2.875 19.64 2.669 19.108C2.491 18.655 2.289 18.021 2.234 16.85C2.175 15.585 2.162 15.205 2.162 12C2.162 8.796 2.174 8.416 2.233 7.15C2.289 5.979 2.49 5.345 2.669 4.892C2.875 4.361 3.133 3.943 3.505 3.505C3.943 3.133 4.36 2.875 4.892 2.669C5.345 2.491 5.979 2.289 7.15 2.234C8.416 2.175 8.796 2.162 12 2.162V2.163ZM12 0C8.741 0 8.333 0.014 8.053 0.072C6.19 0.272 4.831 0.933 3.809 1.956C2.786 2.978 2.125 4.338 1.925 6.2C1.867 6.481 1.852 6.889 1.852 10.148C1.852 13.407 1.866 13.815 1.924 14.095C2.124 15.958 2.785 17.318 3.808 18.34C4.83 19.363 6.19 20.024 8.052 20.224C8.334 20.282 8.741 20.296 12 20.296C15.259 20.296 15.667 20.282 15.947 20.224C17.81 20.024 19.17 19.363 20.192 18.34C21.215 17.318 21.876 15.958 22.076 14.096C22.134 13.816 22.148 13.408 22.148 10.149C22.148 6.89 22.134 6.482 22.076 6.202C21.876 4.339 21.215 2.979 20.192 1.956C19.17 0.933 17.81 0.272 15.948 0.072C15.668 0.014 15.26 0 12 0V0ZM12 5.838C10.858 5.838 9.771 6.289 8.945 7.115C8.119 7.941 7.668 9.028 7.668 10.17C7.668 11.312 8.119 12.399 8.945 13.225C9.771 14.051 10.858 14.502 12 14.502C13.142 14.502 14.229 14.051 15.055 13.225C15.881 12.399 16.332 11.312 16.332 10.17C16.332 9.028 15.881 7.941 15.055 7.115C14.229 6.289 13.142 5.838 12 5.838ZM12 12.67C11.2089 12.67 10.4355 12.4554 9.77772 12.0549C9.11993 11.6544 8.60723 11.0863 8.30921 10.4255C8.0112 9.76476 7.9409 9.04131 8.10765 8.35003C8.2744 7.65874 8.67099 7.03312 9.24344 6.56066C9.81589 6.08821 10.5366 5.79196 11.3059 5.71631C12.0752 5.64067 12.8544 5.78946 13.5307 6.14151C14.2071 6.49355 14.7473 7.0315 15.0696 7.67468C15.3919 8.31785 15.4806 9.03315 15.3237 9.71573C15.1669 10.3983 14.7725 11.011 14.2011 11.4564C13.6296 11.9018 12.913 12.1561 12.176 12.178C12.117 12.178 12.059 12.178 12 12.178V12.67ZM19.846 5.595C19.846 5.19382 19.6868 4.80929 19.405 4.5238C19.1232 4.23832 18.7426 4.076 18.346 4.076C17.9494 4.076 17.5688 4.23832 17.287 4.5238C17.0052 4.80929 16.846 5.19382 16.846 5.595C16.846 5.99618 17.0052 6.38071 17.287 6.6662C17.5688 6.95168 17.9494 7.114 18.346 7.114C18.7426 7.114 19.1232 6.95168 19.405 6.6662C19.6868 6.38071 19.846 5.99618 19.846 5.595Z" fill="currentColor"/>
</svg>
