<svg width="24" height="24" viewBox="0 0 24 24" xmlns="http://www.w3.org/2000/svg" role="img" aria-label="Instagram">
  <title>Instagram</title>
  <g fill="none" fill-rule="evenodd">
    <path d="M12 2.16c3.2 0 3.58.01 4.85.07 3.25.15 4.77 1.7 4.91 4.91.06 1.27.07 1.65.07 4.85s-.01 3.58-.07 4.85c-.15 3.25-1.69 4.77-4.91 4.91-1.27.06-1.65.07-4.85.07s-3.58-.01-4.85-.07c-3.25-.15-4.77-1.7-4.91-4.91C2.07 15.58 2.06 15.2 2.06 12s.01-3.58.07-4.85C2.28 3.9 3.83 2.38 7.08 2.23 8.35 2.17 8.73 2.16 12 2.16zm0-1.6c-3.26 0-3.68.02-4.96.07C3.4.68 1.36 2.7.63 7.04.58 8.32.56 8.74.56 12s.02 3.68.07 4.96c.67 4.28 2.7 6.32 7.04 7.05 1.28.05 1.7.07 4.96.07 3.26 0 3.68-.02 4.96-.07 4.28-.67 6.32-2.7 7.05-7.04.05-1.28.07-1.7.07-4.96 0-3.26-.02-3.68-.07-4.96-.67-4.28-2.7-6.32-7.04-7.05C15.68.58 15.26.56 12 .56z" fill="currentColor"/>
    <path d="M12 5.83a6.17 6.17 0 1 0 0 12.34 6.17 6.17 0 0 0 0-12.34zm0 10.18a4.01 4.01 0 1 1 0-8.02 4.01 4.01 0 0 1 0 8.02z" fill="currentColor"/>
    <circle cx="18.4" cy="5.6" r="1.44" fill="currentColor"/>
  </g>
</svg>
