<?xml version="1.0" encoding="UTF-8"?>
<svg width="24" height="24" viewBox="0 0 24 24" fill="none" xmlns="http://www.w3.org/2000/svg">
<path d="M19 3C19.5304 3 20.0391 3.21071 20.4142 3.58579C20.7893 3.96086 21 4.46957 21 5V19C21 19.5304 20.7893 20.0391 20.4142 20.4142C20.0391 20.7893 19.5304 21 19 21H5C4.46957 21 3.96086 20.7893 3.58579 20.4142C3.21071 20.0391 3 19.5304 3 19V5C3 4.46957 3.21071 3.96086 3.58579 3.58579C3.96086 3.21071 4.46957 3 5 3H19ZM18.5 18.5V13.2C18.5 11.366 17.44 10.5 15.97 10.5C14.88 10.5 14.3 11.1 14 11.7V10.85H12.15V18.5H14.1V13.8C14.1 12.9 14.35 12.1 15.35 12.1C16.35 12.1 16.5 13 16.5 13.8V18.5H18.5ZM6.5 8.3C7.2 8.3 7.75 7.75 7.75 7.15C7.75 6.55 7.2 6 6.5 6C5.8 6 5.25 6.55 5.25 7.15C5.25 7.75 5.8 8.3 6.5 8.3ZM5.4 18.5H7.5V10.85H5.4V18.5Z" fill="currentColor"/>
</svg>
