<svg width="24" height="24" viewBox="0 0 24 24" xmlns="http://www.w3.org/2000/svg" role="img" aria-label="WhatsApp">
  <title>WhatsApp</title>
  <path d="M17.5 6.5C15.7 4.7 13.4 4 11 4 6.6 4 3 7.6 3 12c0 1.1.2 2.1.6 3.1L2 22l7-1.9c1 .5 2 .8 3.1.8 4.4 0 8-3.6 8-8 0-2.4-1-4.6-2.6-6.4zM11 20c-1.1 0-2.1-.3-3-.8l-.5-.3-2.5.7.7-2.4-.2-.6c-.6-1.1-.9-2.3-.9-3.6 0-3.3 2.7-6 6-6 1.6 0 3.1.6 4.2 1.8 1.1 1.1 1.7 2.6 1.7 4.2 0 3.3-2.7 6-6 6zm3.3-4.5c-.3-.1-1.7-.9-1.9-1-.3-.1-.5-.1-.7.1-.2.2-.6.8-.8 1-.1.2-.3.3-.5.3-.2 0-.3 0-.5-.1-.1 0-1.2-.5-2.3-1.4-.9-.8-1.4-1.7-1.6-2-.2-.3 0-.5.1-.6.1-.1.3-.3.4-.5.1-.2.1-.3.2-.5 0-.2 0-.4-.1-.5-.1-.1-.8-1.1-1.1-1.5-.3-.4-.5-.3-.7-.3-.2 0-.5 0-.7.3-.2.3-.8.8-.8 1.9 0 1.1.8 2.2.9 2.4.1.1 1.5 2.3 3.7 3.2.5.2.9.4 1.3.5.5.2 1 .3 1.6.3.5 0 1.1-.1 1.6-.3.5-.2 1-.5 1.4-.9.4-.4.8-1 1-1.5.2-.5.3-1.1.3-1.7 0-.3 0-.6-.1-.9-.1-.3-.3-.4-.4-.5z" fill="currentColor" fill-rule="evenodd"/>
</svg>
