<?xml version="1.0" encoding="UTF-8"?>
<svg width="24" height="24" viewBox="0 0 24 24" fill="none" xmlns="http://www.w3.org/2000/svg">
<path d="M17.472 14.3816C17.2311 14.3816 17.0273 14.494 16.8055 14.5683C16.1946 14.7881 14.5273 15.3581 13.9055 15.3581C13.3228 15.3581 13.2382 15.1626 12.9164 14.8408C12.6664 14.5908 11.9864 13.9765 11.7864 13.7626C11.5864 13.5488 11.3582 13.5765 11.1664 13.7626C10.9832 13.9458 10.6509 14.4281 10.5191 14.5908C10.3864 14.753 10.0864 14.7908 9.83095 14.7015C8.03095 14.0781 6.68095 12.7281 6.05818 10.9281C5.96731 10.6765 6.00595 10.3765 6.1664 10.153C6.33095 9.92813 6.43095 9.74583 6.43095 9.58745C6.43095 9.42813 6.38318 9.30413 6.30595 9.18745C6.23095 9.07161 5.9614 8.34161 5.83095 7.97813C5.70051 7.6165 5.5664 7.66661 5.47231 7.66245C5.38095 7.65498 5.27231 7.65413 5.16366 7.65413C5.05501 7.65413 4.83095 7.70413 4.63866 7.92083C4.4464 8.1383 3.83095 8.72813 3.83095 10.0281C3.83095 11.3281 4.72231 12.5708 4.8664 12.7626C5.0114 12.953 6.7614 15.7626 9.42231 16.9281C9.42231 16.9281 10.3755 17.3608 10.9387 17.5008C11.4309 17.624 11.8664 17.5958 12.2223 17.4375C12.6664 17.2416 14.2664 16.3416 14.5864 15.3581C14.6664 15.103 14.6664 14.9081 14.6164 14.8015C14.5691 14.693 14.4441 14.6426 14.3059 14.5683C14.0832 14.494 13.8809 14.3816 13.6387 14.3816C13.3973 14.3816 13.2832 14.4281 13.1664 14.5458C13.0914 14.62 12.9801 14.753 12.8801 14.87C12.7301 15.048 12.6051 15.153 12.4387 15.1081C12.2723 15.0626 11.7582 14.874 11.1309 14.2958C10.6809 13.8876 10.3691 13.343 10.2582 13.1958C10.1473 13.049 10.2364 12.995 10.3059 12.9208C10.3614 12.8616 10.4273 12.7708 10.4887 12.6908C10.5523 12.608 10.6059 12.5358 10.6523 12.4626C10.7551 12.305 10.7191 12.1808 10.6523 12.0791C10.5864 11.9774 10.1059 10.8208 9.93866 10.399C9.78318 10.008 9.61905 10.0666 9.50595 10.0666C9.40595 10.0666 9.28095 10.0281 9.17231 10.0281C8.83095 10.0281 8.27231 10.2166 7.8164 10.6281C6.99405 11.3416 6.93318 11.9666 7.17231 12.5416C7.3164 12.874 7.9164 14.199 8.56366 15.0958C9.58866 16.5 10.4273 17.1 10.9723 17.4375C11.5223 17.7774 11.9691 17.7416 12.3059 17.658C12.6809 17.5626 13.6559 17.0626 13.9387 16.5C14.2223 15.9376 14.4059 15.4958 14.4809 15.3581C14.5564 15.22 14.7223 15.1626 14.8441 15.2281C15.3941 15.5208 16.5664 16.1708 16.7664 16.2708C16.9664 16.3708 17.1059 16.4208 17.1832 16.3876C17.2614 16.3541 17.4059 16.1708 17.4441 15.9958C17.4809 15.8208 17.5387 15.4208 17.472 15.2416C17.4059 15.0626 17.7137 14.3816 17.472 14.3816Z" fill="currentColor"/>
<path d="M12 2C6.477 2 2 6.477 2 12C2 13.815 2.53 15.504 3.437 16.922L2 22L7.3 20.57C8.68 21.44 10.31 22 12 22C17.523 22 22 17.523 22 12C22 6.477 17.523 2 12 2ZM12 20.4C10.5 20.4 9.1 19.9 7.9 19.1L7.6 18.9L4.4 19.6L5.1 16.4L4.9 16.1C4.1 14.9 3.6 13.5 3.6 12C3.6 7.46 7.36 3.7 12 3.7C16.64 3.7 20.4 7.46 20.4 12C20.4 16.54 16.64 20.3 12 20.3V20.4Z" fill="currentColor"/>
</svg>
